<svg width="1815" height="1107" viewBox="0 0 1815 1107" fill="none" xmlns="http://www.w3.org/2000/svg">
<path d="M188.049 574.25C188.049 602.917 180.299 625.333 164.799 641.5C149.466 657.5 127.716 665.5 99.5488 665.5C80.5488 665.5 63.3822 661.5 48.0488 653.5C32.8822 645.5 21.0488 634.583 12.5488 620.75C4.2155 606.917 0.0488281 591.5 0.0488281 574.5C0.0488281 557.333 4.2155 541.833 12.5488 528C20.8822 514.167 32.3822 503.333 47.0488 495.5C61.7155 487.5 78.0488 483.5 96.0488 483.5C107.382 483.5 118.882 485.083 130.549 488.25C142.382 491.25 152.216 495.333 160.049 500.5L165.049 535.75H162.799C159.299 521.75 151.216 510.833 138.549 503C125.882 495 111.799 491 96.2988 491C74.1322 491 55.6322 498.917 40.7988 514.75C26.1322 530.417 18.7988 550.167 18.7988 574C18.7988 597.833 26.3822 617.833 41.5488 634C56.8822 650 76.8822 658 101.549 658C126.216 658 146.299 650 161.799 634C177.465 618 185.299 596.083 185.299 568.25H187.799C187.966 570.25 188.049 572.25 188.049 574.25Z" fill="#5E4679"/>
<path d="M359.93 489.5H356.43C351.43 489.5 346.68 490.917 342.18 493.75C337.846 496.417 334.18 499.833 331.18 504L281.93 584V643.75C281.93 648.083 283.43 651.833 286.43 655C289.596 658 293.43 659.5 297.93 659.5H300.93V662H246.43V659.5H249.68C254.013 659.5 257.68 658 260.68 655C263.846 652 265.513 648.333 265.68 644V583.75L217.93 504C215.43 500 211.846 496.583 207.18 493.75C202.68 490.917 197.93 489.5 192.93 489.5H189.43V487H250.93V489.5H247.68C244.013 489.5 241.18 491.167 239.18 494.5C238.18 496.333 237.68 498.167 237.68 500C237.68 501.667 238.096 503.333 238.93 505L276.43 575L316.43 504.75C317.263 503.083 317.68 501.417 317.68 499.75C317.68 498.083 317.096 496.333 315.93 494.5C313.93 491.167 311.096 489.5 307.43 489.5H304.43V487H359.93V489.5Z" fill="#5E4679"/>
<path d="M432.963 662H371.963L372.213 659.5H375.213C379.546 659.5 383.213 658 386.213 655C389.38 652 391.046 648.333 391.213 644V505C391.046 500.667 389.38 497 386.213 494C383.213 491 379.546 489.5 375.213 489.5H372.213L371.963 487H421.713C438.88 487 452.213 490.833 461.713 498.5C471.213 506 475.963 516.083 475.963 528.75C475.963 538.75 473.296 547.083 467.963 553.75C462.63 560.25 456.13 564.583 448.463 566.75C461.63 568.75 472.046 574.167 479.713 583C487.38 591.833 491.213 603 491.213 616.5C491.213 629.833 486.046 640.75 475.713 649.25C465.546 657.75 451.296 662 432.963 662ZM407.463 652.75H431.963C432.13 652.75 432.296 652.75 432.463 652.75C445.13 652.75 454.963 649.333 461.963 642.5C468.963 635.667 472.463 625.917 472.463 613.25C472.463 606.083 471.213 599.833 468.713 594.5C466.38 589 463.38 584.667 459.713 581.5C450.046 573.5 435.546 569.5 416.213 569.5C416.213 569.5 416.13 569.5 415.963 569.5V567.25C437.963 567.25 451.213 559.083 455.713 542.75C456.713 539.083 457.213 535 457.213 530.5C457.213 519.167 454.046 510.417 447.713 504.25C441.546 498.083 432.546 495 420.713 495H407.463V652.75Z" fill="#5E4679"/>
<path d="M519.256 659.5C523.589 659.5 527.256 658 530.256 655C533.423 651.833 535.089 648.083 535.256 643.75V503.75C535.256 499.75 533.673 496.417 530.506 493.75C527.339 490.917 523.589 489.5 519.256 489.5H516.256L516.006 487H589.256C594.423 487 600.006 486.5 606.006 485.5C612.173 484.5 616.506 483.5 619.006 482.5V514H616.506V509.5C616.506 505.5 615.089 502.083 612.256 499.25C609.589 496.417 606.339 494.917 602.506 494.75H551.506V572H593.756C597.089 571.833 599.923 570.583 602.256 568.25C604.589 565.917 605.756 563 605.756 559.5V556H608.256V595.5H605.756V591.75C605.756 588.417 604.589 585.583 602.256 583.25C600.089 580.917 597.339 579.667 594.006 579.5H551.506V654.25H587.256C599.589 654.25 609.006 651.5 615.506 646C622.006 640.5 627.423 632.333 631.756 621.5H634.256L619.756 662H516.006V659.5H519.256Z" fill="#5E4679"/>
<path d="M879.852 704.5C872.852 706.333 866.602 707.25 861.102 707.25C855.768 707.25 851.018 706.917 846.852 706.25C842.685 705.583 838.185 704.25 833.352 702.25C828.685 700.417 824.268 698.25 820.102 695.75C815.935 693.25 811.768 690.167 807.602 686.5C799.935 680.333 792.935 673.667 786.602 666.5C780.435 659.333 768.435 645.917 750.602 626.25C732.768 606.417 720.935 593.25 715.102 586.75C709.268 580.25 704.768 576.833 701.602 576.5V574C711.268 574 717.685 573.833 720.852 573.5C724.185 573 727.685 572.25 731.352 571.25C735.018 570.083 738.102 568.583 740.602 566.75C750.435 560.417 755.352 549.917 755.352 535.25C755.352 523.083 752.602 513.333 747.102 506C741.768 498.667 734.185 494.917 724.352 494.75H693.352V643.75C693.352 647.917 694.852 651.583 697.852 654.75C701.018 657.917 704.852 659.5 709.352 659.5H712.352L712.602 662H657.852V659.5H661.102C665.268 659.5 668.935 658 672.102 655C675.268 652 676.935 648.333 677.102 644V505.25C676.935 500.917 675.268 497.25 672.102 494.25C669.102 491.083 665.435 489.5 661.102 489.5H657.852V487H725.352C740.018 487 751.768 491.167 760.602 499.5C769.602 507.667 774.102 518.583 774.102 532.25C774.102 545.75 770.018 557.417 761.852 567.25C753.685 576.917 743.685 581.75 731.852 581.75C731.852 581.75 731.768 581.75 731.602 581.75C737.268 587.75 743.685 594.75 750.852 602.75C779.685 634.583 798.185 654.583 806.352 662.75C814.518 670.917 821.685 677.583 827.852 682.75C834.185 688.083 839.768 692 844.602 694.5C854.435 699.833 864.185 702.5 873.852 702.5C875.852 702.5 877.852 702.333 879.852 702V704.5Z" fill="#5E4679"/>
<path d="M1067.69 574.25C1067.69 602.917 1059.94 625.333 1044.44 641.5C1029.1 657.5 1007.35 665.5 979.188 665.5C960.188 665.5 943.021 661.5 927.688 653.5C912.521 645.5 900.688 634.583 892.188 620.75C883.854 606.917 879.688 591.5 879.688 574.5C879.688 557.333 883.854 541.833 892.188 528C900.521 514.167 912.021 503.333 926.688 495.5C941.354 487.5 957.687 483.5 975.688 483.5C987.021 483.5 998.521 485.083 1010.19 488.25C1022.02 491.25 1031.85 495.333 1039.69 500.5L1044.69 535.75H1042.44C1038.94 521.75 1030.85 510.833 1018.19 503C1005.52 495 991.437 491 975.938 491C953.771 491 935.271 498.917 920.438 514.75C905.771 530.417 898.438 550.167 898.438 574C898.438 597.833 906.021 617.833 921.188 634C936.521 650 956.521 658 981.188 658C1005.85 658 1025.94 650 1041.44 634C1057.1 618 1064.94 596.083 1064.94 568.25H1067.44C1067.6 570.25 1067.69 572.25 1067.69 574.25Z" fill="#5E4679"/>
<path d="M1143.01 545.25C1142.34 543.083 1142.01 541.25 1142.01 539.75C1142.01 538.083 1142.09 536.25 1142.26 534.25C1142.43 532.25 1142.76 529.5 1143.26 526C1143.93 522.5 1145.09 519.083 1146.76 515.75C1148.43 512.25 1150.34 508.917 1152.51 505.75C1154.68 502.583 1157.43 499.667 1160.76 497C1164.26 494.333 1168.09 492 1172.26 490C1181.09 485.667 1191.84 483.5 1204.51 483.5C1230.01 483.5 1250.76 492 1266.76 509C1282.93 525.833 1291.01 547.417 1291.01 573.75C1291.01 600.083 1281.51 622 1262.51 639.5C1243.51 656.833 1219.43 665.5 1190.26 665.5C1161.09 665.5 1136.84 656.833 1117.51 639.5C1098.34 622.167 1088.76 599.667 1088.76 572C1088.76 554.167 1092.93 538.333 1101.26 524.5C1109.59 510.667 1121.51 499.833 1137.01 492L1138.51 494.25C1127.68 501.417 1119.84 511.75 1115.01 525.25C1110.34 538.75 1108.01 553.083 1108.01 568.25C1108.01 596.417 1115.68 618.417 1131.01 634.25C1146.34 650.083 1166.01 658 1190.01 658C1214.01 658 1233.59 650.083 1248.76 634.25C1264.09 618.25 1271.76 597.25 1271.76 571.25C1271.76 548.75 1265.68 529.75 1253.51 514.25C1241.51 498.75 1224.51 491 1202.51 491C1192.68 491 1183.76 492.75 1175.76 496.25C1161.26 502.417 1151.68 512.583 1147.01 526.75C1145.68 530.917 1145.01 534.5 1145.01 537.5C1145.01 540.5 1145.18 542.917 1145.51 544.75L1143.01 545.25Z" fill="#5E4679"/>
<path d="M1486.02 438C1491.68 434.167 1498.43 431.167 1506.27 429C1514.1 426.833 1520.43 425.75 1525.27 425.75C1530.1 425.75 1533.18 425.75 1534.52 425.75V428.25C1526.68 428.583 1519.35 430.167 1512.52 433C1505.68 435.667 1500.02 438.833 1495.52 442.5C1491.18 446 1486.93 450.75 1482.77 456.75C1478.6 462.583 1475.35 467.583 1473.02 471.75C1470.85 475.917 1468.27 481.25 1465.27 487.75L1395.77 639.75C1389.6 653.25 1386.52 661.833 1386.52 665.5H1384.27L1314.02 505.25C1311.68 499.917 1308.43 496 1304.27 493.5C1300.27 490.833 1296.18 489.5 1292.02 489.5H1290.02V487H1346.27V489.5H1344.02C1339.02 489.5 1335.68 491.833 1334.02 496.5C1333.68 497.5 1333.52 498.667 1333.52 500C1333.52 501.333 1333.93 503 1334.77 505L1387.02 636L1449.02 487.75C1458.85 464.583 1471.18 448 1486.02 438Z" fill="#5E4679"/>
<path d="M1489.96 659.5C1494.29 659.5 1497.96 658 1500.96 655C1504.13 651.833 1505.79 648.083 1505.96 643.75V503.75C1505.96 499.75 1504.38 496.417 1501.21 493.75C1498.04 490.917 1494.29 489.5 1489.96 489.5H1486.96L1486.71 487H1559.96C1565.13 487 1570.71 486.5 1576.71 485.5C1582.88 484.5 1587.21 483.5 1589.71 482.5V514H1587.21V509.5C1587.21 505.5 1585.79 502.083 1582.96 499.25C1580.29 496.417 1577.04 494.917 1573.21 494.75H1522.21V572H1564.46C1567.79 571.833 1570.63 570.583 1572.96 568.25C1575.29 565.917 1576.46 563 1576.46 559.5V556H1578.96V595.5H1576.46V591.75C1576.46 588.417 1575.29 585.583 1572.96 583.25C1570.79 580.917 1568.04 579.667 1564.71 579.5H1522.21V654.25H1557.96C1570.29 654.25 1579.71 651.5 1586.21 646C1592.71 640.5 1598.13 632.333 1602.46 621.5H1604.96L1590.46 662H1486.71V659.5H1489.96Z" fill="#5E4679"/>
<path d="M1810.5 489.5C1806.33 489.5 1802.75 491 1799.75 494C1796.75 496.833 1795.16 500.333 1795 504.5V633.5C1795 643.167 1795.58 652.333 1796.75 661L1797.25 665.5H1795L1658.75 520V644.5C1658.75 648.667 1660.25 652.25 1663.25 655.25C1666.25 658.083 1669.83 659.5 1674 659.5H1678.75V662H1627.25V659.5H1632C1636.16 659.5 1639.75 658.083 1642.75 655.25C1645.75 652.25 1647.25 648.583 1647.25 644.25V514.5C1647.25 504.333 1646.66 495.25 1645.5 487.25L1645 483.25H1647.5L1783.75 628.75V504.75C1783.58 500.417 1782 496.833 1779 494C1776 491 1772.41 489.5 1768.25 489.5H1763.5V487H1815V489.5H1810.5Z" fill="#5E4679"/>
<path fill-rule="evenodd" clip-rule="evenodd" d="M548 349C539.163 349 532 356.163 532 365V406C532 414.837 524.837 422 516 422C507.163 422 500 414.837 500 406V365C500 338.49 521.49 317 548 317H1280C1306.51 317 1328 338.49 1328 365V406C1328 414.837 1320.84 422 1312 422C1303.16 422 1296 414.837 1296 406V365C1296 356.163 1288.84 349 1280 349H548Z" fill="url(#paint0_linear_225_34)"/>
<path fill-rule="evenodd" clip-rule="evenodd" d="M999 161C1007.84 161 1015 168.163 1015 177V332.5C1015 341.337 1007.84 348.5 999 348.5C990.163 348.5 983 341.337 983 332.5V177C983 168.163 990.163 161 999 161Z" fill="url(#paint1_linear_225_34)"/>
<path fill-rule="evenodd" clip-rule="evenodd" d="M499.807 160.579C505.838 154.121 515.963 153.775 522.421 159.807L625.762 256.319C635.482 265.397 641 278.1 641 291.4V328.5C641 337.337 633.837 344.5 625 344.5C616.163 344.5 609 337.337 609 328.5V291.4C609 286.967 607.161 282.732 603.921 279.706L500.579 183.193C494.121 177.162 493.775 167.037 499.807 160.579Z" fill="url(#paint2_linear_225_34)"/>
<path fill-rule="evenodd" clip-rule="evenodd" d="M1306.64 207.517C1310.78 215.328 1307.79 225.009 1299.98 229.142L1214.02 274.629C1208.78 277.402 1205.5 282.844 1205.5 288.771V331C1205.5 339.837 1198.34 347 1189.5 347C1180.66 347 1173.5 339.837 1173.5 331V288.771C1173.5 270.988 1183.33 254.662 1199.05 246.345L1285.02 200.858C1292.83 196.725 1302.51 199.706 1306.64 207.517Z" fill="url(#paint3_linear_225_34)"/>
<path d="M544 166C544 188.091 526.091 206 504 206C481.909 206 464 188.091 464 166C464 143.909 481.909 126 504 126C526.091 126 544 143.909 544 166Z" fill="url(#paint4_linear_225_34)"/>
<path fill-rule="evenodd" clip-rule="evenodd" d="M690.807 34.5792C696.838 28.1211 706.963 27.7752 713.421 33.8065L816.762 130.319C826.482 139.397 832 152.1 832 165.4V330C832 338.837 824.837 346 816 346C807.163 346 800 338.837 800 330V165.4C800 160.967 798.161 156.732 794.921 153.706L691.579 57.1935C685.121 51.1621 684.775 41.0374 690.807 34.5792Z" fill="url(#paint5_linear_225_34)"/>
<path d="M735 40C735 62.0914 717.091 80 695 80C672.909 80 655 62.0914 655 40C655 17.9086 672.909 0 695 0C717.091 0 735 17.9086 735 40Z" fill="url(#paint6_linear_225_34)"/>
<path d="M1352 198C1352 220.091 1334.09 238 1312 238C1289.91 238 1272 220.091 1272 198C1272 175.909 1289.91 158 1312 158C1334.09 158 1352 175.909 1352 198Z" fill="url(#paint7_linear_225_34)"/>
<path fill-rule="evenodd" clip-rule="evenodd" d="M358.767 285.608C366.578 281.475 376.26 284.456 380.392 292.267L415.879 358.233C418.652 363.473 424.094 366.75 430.021 366.75H512.25C521.087 366.75 528.25 373.913 528.25 382.75C528.25 391.587 521.087 398.75 512.25 398.75H430.021C412.238 398.75 395.912 388.918 387.595 373.199L352.108 307.233C347.975 299.422 350.956 289.741 358.767 285.608Z" fill="url(#paint8_linear_225_34)"/>
<path d="M363 242C385.091 242 403 259.909 403 282C403 304.091 385.091 322 363 322C340.909 322 323 304.091 323 282C323 259.909 340.909 242 363 242Z" fill="url(#paint9_linear_225_34)"/>
<path d="M1039 142C1039 164.091 1021.09 182 999 182C976.909 182 959 164.091 959 142C959 119.909 976.909 102 999 102C1021.09 102 1039 119.909 1039 142Z" fill="url(#paint10_linear_225_34)"/>
<path fill-rule="evenodd" clip-rule="evenodd" d="M1272 783C1280.84 783 1288 775.837 1288 767V726C1288 717.163 1295.16 710 1304 710C1312.84 710 1320 717.163 1320 726V767C1320 793.51 1298.51 815 1272 815L540 815C513.49 815 492 793.51 492 767V726C492 717.164 499.163 710 508 710C516.836 710 524 717.164 524 726V767C524 775.837 531.163 783 540 783L1272 783Z" fill="url(#paint11_linear_225_34)"/>
<path fill-rule="evenodd" clip-rule="evenodd" d="M821 941C812.163 941 805 933.837 805 925V799.5C805 790.663 812.163 783.5 821 783.5C829.837 783.5 837 790.663 837 799.5V925C837 933.837 829.837 941 821 941Z" fill="url(#paint12_linear_225_34)"/>
<path fill-rule="evenodd" clip-rule="evenodd" d="M1320.19 971.421C1314.16 977.879 1304.04 978.225 1297.58 972.193L1194.24 875.681C1184.52 866.603 1179 853.9 1179 840.6V803.5C1179 794.663 1186.16 787.5 1195 787.5C1203.84 787.5 1211 794.663 1211 803.5V840.6C1211 845.034 1212.84 849.268 1216.08 852.294L1319.42 948.807C1325.88 954.838 1326.22 964.963 1320.19 971.421Z" fill="url(#paint13_linear_225_34)"/>
<path fill-rule="evenodd" clip-rule="evenodd" d="M513.358 904.483C509.225 896.673 512.206 886.991 520.017 882.858L605.983 837.371C611.223 834.599 614.5 829.156 614.5 823.229V801C614.5 792.163 621.663 785 630.5 785C639.337 785 646.5 792.163 646.5 801V823.229C646.5 841.012 636.668 857.338 620.949 865.655L534.983 911.142C527.172 915.275 517.491 912.294 513.358 904.483Z" fill="url(#paint14_linear_225_34)"/>
<path d="M1276 966C1276 943.909 1293.91 926 1316 926C1338.09 926 1356 943.909 1356 966C1356 988.091 1338.09 1006 1316 1006C1293.91 1006 1276 988.091 1276 966Z" fill="url(#paint15_linear_225_34)"/>
<path fill-rule="evenodd" clip-rule="evenodd" d="M1129.19 1057.42C1123.16 1063.88 1113.04 1064.22 1106.58 1058.19L1003.24 961.681C993.518 952.603 988 939.9 988 926.6V802C988 793.164 995.163 786 1004 786C1012.84 786 1020 793.164 1020 802V926.6C1020 931.034 1021.84 935.268 1025.08 938.294L1128.42 1034.81C1134.88 1040.84 1135.22 1050.96 1129.19 1057.42Z" fill="url(#paint16_linear_225_34)"/>
<path d="M1085 1052C1085 1029.91 1102.91 1012 1125 1012C1147.09 1012 1165 1029.91 1165 1052C1165 1074.09 1147.09 1092 1125 1092C1102.91 1092 1085 1074.09 1085 1052Z" fill="url(#paint17_linear_225_34)"/>
<path d="M468 914C468 891.909 485.909 874 508 874C530.091 874 548 891.909 548 914C548 936.092 530.091 954 508 954C485.909 954 468 936.092 468 914Z" fill="url(#paint18_linear_225_34)"/>
<path d="M781 960C781 937.909 798.909 920 821 920C843.091 920 861 937.909 861 960C861 982.091 843.091 1000 821 1000C798.909 1000 781 982.092 781 960Z" fill="url(#paint19_linear_225_34)"/>
<path d="M353 168L341.566 102.434L276 91L341.566 79.5661L353 14L364.434 79.5661L430 91L364.434 102.434L353 168Z" fill="url(#paint20_linear_225_34)"/>
<path d="M1479.5 379L1462.79 284.057L1367 267.5L1462.79 250.943L1479.5 156L1496.21 250.943L1592 267.5L1496.21 284.057L1479.5 379Z" fill="url(#paint21_linear_225_34)"/>
<path d="M644 1107L632.715 1042.71L568 1031.5L632.715 1020.29L644 956L655.285 1020.29L720 1031.5L655.285 1042.71L644 1107Z" fill="url(#paint22_linear_225_34)"/>
<defs>
<linearGradient id="paint0_linear_225_34" x1="909" y1="197.5" x2="909" y2="978.501" gradientUnits="userSpaceOnUse">
<stop stop-color="#99C0CC"/>
<stop offset="0.479167" stop-color="#5E4679"/>
<stop offset="1" stop-color="#A876A9"/>
</linearGradient>
<linearGradient id="paint1_linear_225_34" x1="909" y1="197.5" x2="909" y2="978.501" gradientUnits="userSpaceOnUse">
<stop stop-color="#99C0CC"/>
<stop offset="0.479167" stop-color="#5E4679"/>
<stop offset="1" stop-color="#A876A9"/>
</linearGradient>
<linearGradient id="paint2_linear_225_34" x1="909" y1="197.5" x2="909" y2="978.501" gradientUnits="userSpaceOnUse">
<stop stop-color="#99C0CC"/>
<stop offset="0.479167" stop-color="#5E4679"/>
<stop offset="1" stop-color="#A876A9"/>
</linearGradient>
<linearGradient id="paint3_linear_225_34" x1="909" y1="197.5" x2="909" y2="978.501" gradientUnits="userSpaceOnUse">
<stop stop-color="#99C0CC"/>
<stop offset="0.479167" stop-color="#5E4679"/>
<stop offset="1" stop-color="#A876A9"/>
</linearGradient>
<linearGradient id="paint4_linear_225_34" x1="909" y1="197.5" x2="909" y2="978.501" gradientUnits="userSpaceOnUse">
<stop stop-color="#99C0CC"/>
<stop offset="0.479167" stop-color="#5E4679"/>
<stop offset="1" stop-color="#A876A9"/>
</linearGradient>
<linearGradient id="paint5_linear_225_34" x1="909" y1="197.5" x2="909" y2="978.501" gradientUnits="userSpaceOnUse">
<stop stop-color="#99C0CC"/>
<stop offset="0.479167" stop-color="#5E4679"/>
<stop offset="1" stop-color="#A876A9"/>
</linearGradient>
<linearGradient id="paint6_linear_225_34" x1="909" y1="197.5" x2="909" y2="978.501" gradientUnits="userSpaceOnUse">
<stop stop-color="#99C0CC"/>
<stop offset="0.479167" stop-color="#5E4679"/>
<stop offset="1" stop-color="#A876A9"/>
</linearGradient>
<linearGradient id="paint7_linear_225_34" x1="909" y1="197.5" x2="909" y2="978.501" gradientUnits="userSpaceOnUse">
<stop stop-color="#99C0CC"/>
<stop offset="0.479167" stop-color="#5E4679"/>
<stop offset="1" stop-color="#A876A9"/>
</linearGradient>
<linearGradient id="paint8_linear_225_34" x1="909" y1="197.5" x2="909" y2="978.501" gradientUnits="userSpaceOnUse">
<stop stop-color="#99C0CC"/>
<stop offset="0.479167" stop-color="#5E4679"/>
<stop offset="1" stop-color="#A876A9"/>
</linearGradient>
<linearGradient id="paint9_linear_225_34" x1="909" y1="197.5" x2="909" y2="978.501" gradientUnits="userSpaceOnUse">
<stop stop-color="#99C0CC"/>
<stop offset="0.479167" stop-color="#5E4679"/>
<stop offset="1" stop-color="#A876A9"/>
</linearGradient>
<linearGradient id="paint10_linear_225_34" x1="909" y1="197.5" x2="909" y2="978.501" gradientUnits="userSpaceOnUse">
<stop stop-color="#99C0CC"/>
<stop offset="0.479167" stop-color="#5E4679"/>
<stop offset="1" stop-color="#A876A9"/>
</linearGradient>
<linearGradient id="paint11_linear_225_34" x1="909" y1="197.5" x2="909" y2="978.501" gradientUnits="userSpaceOnUse">
<stop stop-color="#99C0CC"/>
<stop offset="0.479167" stop-color="#5E4679"/>
<stop offset="1" stop-color="#A876A9"/>
</linearGradient>
<linearGradient id="paint12_linear_225_34" x1="909" y1="197.5" x2="909" y2="978.501" gradientUnits="userSpaceOnUse">
<stop stop-color="#99C0CC"/>
<stop offset="0.479167" stop-color="#5E4679"/>
<stop offset="1" stop-color="#A876A9"/>
</linearGradient>
<linearGradient id="paint13_linear_225_34" x1="909" y1="197.5" x2="909" y2="978.501" gradientUnits="userSpaceOnUse">
<stop stop-color="#99C0CC"/>
<stop offset="0.479167" stop-color="#5E4679"/>
<stop offset="1" stop-color="#A876A9"/>
</linearGradient>
<linearGradient id="paint14_linear_225_34" x1="909" y1="197.5" x2="909" y2="978.501" gradientUnits="userSpaceOnUse">
<stop stop-color="#99C0CC"/>
<stop offset="0.479167" stop-color="#5E4679"/>
<stop offset="1" stop-color="#A876A9"/>
</linearGradient>
<linearGradient id="paint15_linear_225_34" x1="909" y1="197.5" x2="909" y2="978.501" gradientUnits="userSpaceOnUse">
<stop stop-color="#99C0CC"/>
<stop offset="0.479167" stop-color="#5E4679"/>
<stop offset="1" stop-color="#A876A9"/>
</linearGradient>
<linearGradient id="paint16_linear_225_34" x1="909" y1="197.5" x2="909" y2="978.501" gradientUnits="userSpaceOnUse">
<stop stop-color="#99C0CC"/>
<stop offset="0.479167" stop-color="#5E4679"/>
<stop offset="1" stop-color="#A876A9"/>
</linearGradient>
<linearGradient id="paint17_linear_225_34" x1="909" y1="197.5" x2="909" y2="978.501" gradientUnits="userSpaceOnUse">
<stop stop-color="#99C0CC"/>
<stop offset="0.479167" stop-color="#5E4679"/>
<stop offset="1" stop-color="#A876A9"/>
</linearGradient>
<linearGradient id="paint18_linear_225_34" x1="909" y1="197.5" x2="909" y2="978.501" gradientUnits="userSpaceOnUse">
<stop stop-color="#99C0CC"/>
<stop offset="0.479167" stop-color="#5E4679"/>
<stop offset="1" stop-color="#A876A9"/>
</linearGradient>
<linearGradient id="paint19_linear_225_34" x1="909" y1="197.5" x2="909" y2="978.501" gradientUnits="userSpaceOnUse">
<stop stop-color="#99C0CC"/>
<stop offset="0.479167" stop-color="#5E4679"/>
<stop offset="1" stop-color="#A876A9"/>
</linearGradient>
<linearGradient id="paint20_linear_225_34" x1="909" y1="197.5" x2="909" y2="978.501" gradientUnits="userSpaceOnUse">
<stop stop-color="#99C0CC"/>
<stop offset="0.479167" stop-color="#5E4679"/>
<stop offset="1" stop-color="#A876A9"/>
</linearGradient>
<linearGradient id="paint21_linear_225_34" x1="909" y1="197.5" x2="909" y2="978.501" gradientUnits="userSpaceOnUse">
<stop stop-color="#99C0CC"/>
<stop offset="0.479167" stop-color="#5E4679"/>
<stop offset="1" stop-color="#A876A9"/>
</linearGradient>
<linearGradient id="paint22_linear_225_34" x1="909" y1="197.5" x2="909" y2="978.501" gradientUnits="userSpaceOnUse">
<stop stop-color="#99C0CC"/>
<stop offset="0.479167" stop-color="#5E4679"/>
<stop offset="1" stop-color="#A876A9"/>
</linearGradient>
</defs>
</svg>
