<svg width="513" height="433" viewBox="0 0 513 433" fill="none" xmlns="http://www.w3.org/2000/svg">
<g filter="url(#filter0_diii_237_41)">
<path fill-rule="evenodd" clip-rule="evenodd" d="M497.724 132.776C512.759 147.812 512.759 172.188 497.724 187.224L272.895 412.052C264.925 420.022 254.115 424.5 242.843 424.5H42.5C21.237 424.5 4 407.263 4 386C4 364.737 21.237 347.5 42.5 347.5H225.239C227.361 347.5 229.396 346.657 230.896 345.157L443.276 132.776C458.312 117.741 482.688 117.741 497.724 132.776Z" fill="#160E21"/>
<path fill-rule="evenodd" clip-rule="evenodd" d="M500.743 1.75736C503.086 4.1005 503.086 7.89949 500.743 10.2426L246.414 264.571C244.539 266.446 241.995 267.5 239.343 267.5H95.5635C91.7202 267.5 88.5188 270.289 87.0362 273.835C82.2073 285.384 70.8014 293.5 57.5 293.5C39.8269 293.5 25.5 279.173 25.5 261.5C25.5 243.827 39.8269 229.5 57.5 229.5C70.8014 229.5 82.2073 237.616 87.0362 249.165C88.5188 252.711 91.7202 255.5 95.5635 255.5H235.201C237.323 255.5 239.358 254.657 240.858 253.157L492.257 1.75736C494.6 -0.585786 498.4 -0.585786 500.743 1.75736Z" fill="#160E21"/>
</g>
<defs>
<filter id="filter0_diii_237_41" x="-6" y="0" width="519" height="432.5" filterUnits="userSpaceOnUse" color-interpolation-filters="sRGB">
<feFlood flood-opacity="0" result="BackgroundImageFix"/>
<feColorMatrix in="SourceAlpha" type="matrix" values="0 0 0 0 0 0 0 0 0 0 0 0 0 0 0 0 0 0 127 0" result="hardAlpha"/>
<feOffset dy="4"/>
<feGaussianBlur stdDeviation="2"/>
<feComposite in2="hardAlpha" operator="out"/>
<feColorMatrix type="matrix" values="0 0 0 0 0.358333 0 0 0 0 0.353854 0 0 0 0 0.353854 0 0 0 0.25 0"/>
<feBlend mode="normal" in2="BackgroundImageFix" result="effect1_dropShadow_237_41"/>
<feBlend mode="normal" in="SourceGraphic" in2="effect1_dropShadow_237_41" result="shape"/>
<feColorMatrix in="SourceAlpha" type="matrix" values="0 0 0 0 0 0 0 0 0 0 0 0 0 0 0 0 0 0 127 0" result="hardAlpha"/>
<feOffset dx="-3" dy="1"/>
<feGaussianBlur stdDeviation="2"/>
<feComposite in2="hardAlpha" operator="arithmetic" k2="-1" k3="1"/>
<feColorMatrix type="matrix" values="0 0 0 0 0.405295 0 0 0 0 0.368576 0 0 0 0 0.458333 0 0 0 1 0"/>
<feBlend mode="normal" in2="shape" result="effect2_innerShadow_237_41"/>
<feColorMatrix in="SourceAlpha" type="matrix" values="0 0 0 0 0 0 0 0 0 0 0 0 0 0 0 0 0 0 127 0" result="hardAlpha"/>
<feOffset dx="-13" dy="8"/>
<feGaussianBlur stdDeviation="5"/>
<feComposite in2="hardAlpha" operator="arithmetic" k2="-1" k3="1"/>
<feColorMatrix type="matrix" values="0 0 0 0 0 0 0 0 0 0 0 0 0 0 0 0 0 0 0.25 0"/>
<feBlend mode="normal" in2="effect2_innerShadow_237_41" result="effect3_innerShadow_237_41"/>
<feColorMatrix in="SourceAlpha" type="matrix" values="0 0 0 0 0 0 0 0 0 0 0 0 0 0 0 0 0 0 127 0" result="hardAlpha"/>
<feOffset dx="3"/>
<feGaussianBlur stdDeviation="3.5"/>
<feComposite in2="hardAlpha" operator="arithmetic" k2="-1" k3="1"/>
<feColorMatrix type="matrix" values="0 0 0 0 0.0214734 0 0 0 0 0.0165278 0 0 0 0 0.0291667 0 0 0 0.74 0"/>
<feBlend mode="normal" in2="effect3_innerShadow_237_41" result="effect4_innerShadow_237_41"/>
</filter>
</defs>
</svg>
